<?xml version="1.0" standalone="no"?>
<!DOCTYPE svg PUBLIC "-//W3C//DTD SVG 1.1//EN" "http://www.w3.org/Graphics/SVG/1.1/DTD/svg11.dtd" >
<svg xmlns="http://www.w3.org/2000/svg" xmlns:xlink="http://www.w3.org/1999/xlink" version="1.1">
<metadata>
Created by FontForge 20160407 at Wed Aug 17 13:51:51 2016
 By Jimmy Warting
 The digitally encoded machine readable outline data for producing the Typefaces 
 provided as part of your laser printer is copyrighted (c) 1989, 1990, 1999, 2002 Heidelberger Druckmaschinen AG. 
 All rights reserved. This data is the property of Heidelberger Druckmaschinen AG, 
 and may not be reproduced, used, displayed, modified, disclosed or transferred 
 without the express written approval of Heidelberger Druckmaschinen AG. 
</metadata>
<defs>
<font id="EurostileLTStd-BoldCn" horiz-adv-x="464" >
  <font-face 
    font-family="Eurostile LT Std"
    font-weight="700"
    font-stretch="condensed"
    units-per-em="1000"
    panose-1="2 11 8 6 3 5 2 6 2 4"
    ascent="750"
    descent="-250"
    x-height="510"
    cap-height="724"
    bbox="-166 -250 1000 964"
    underline-thickness="50"
    underline-position="-100"
    stemh="112"
    stemv="148"
    unicode-range="U+0020-FB02"
  />
<missing-glyph horiz-adv-x="500" 
d="M0 0v700h500v-700h-500zM250 395l170 255h-340zM280 350l170 -255v510zM80 50h340l-170 255zM50 605v-510l170 255z" />
    <glyph glyph-name="f_i" unicode="fi" horiz-adv-x="537" 
d="M10 398v112h42v102c0 74 64 120 141 120c27 0 54 0 80 -4v-104c-5 1 -9 2 -14 2h-7c-32 0 -52 -11 -52 -39v-77h71v-112h-71v-398h-148v398h-42zM342 0v510h148v-510h-148zM342 606v118h148v-118h-148z" />
    <glyph glyph-name="f_l" unicode="fl" horiz-adv-x="537" 
d="M342 0v724h148v-724h-148zM10 398v112h42v102c0 74 64 120 141 120c27 0 54 0 80 -4v-104c-5 1 -9 2 -14 2h-7c-32 0 -52 -11 -52 -39v-77h71v-112h-71v-398h-148v398h-42z" />
    <glyph glyph-name=".notdef" horiz-adv-x="500" 
d="M0 0v700h500v-700h-500zM250 395l170 255h-340zM280 350l170 -255v510zM80 50h340l-170 255zM50 605v-510l170 255z" />
    <glyph glyph-name="space" unicode=" " horiz-adv-x="250" 
 />
    <glyph glyph-name="exclam" unicode="!" horiz-adv-x="278" 
d="M65 222v502h148v-502h-148zM65 0v154h148v-154h-148z" />
    <glyph glyph-name="quotedbl" unicode="&#x22;" horiz-adv-x="407" 
d="M226 412v312h112v-312h-112zM69 412v312h112v-312h-112z" />
    <glyph glyph-name="numbersign" unicode="#" horiz-adv-x="500" 
d="M291 295l17 134h-99l-17 -134h99zM4 207v88h94l17 134h-82v88h94l28 207h94l-28 -207h99l28 207h94l-28 -207h82v-88h-94l-17 -134h81v-88h-93l-28 -207h-94l28 207h-99l-28 -207h-94l28 207h-82z" />
    <glyph glyph-name="dollar" unicode="$" horiz-adv-x="500" 
d="M223 451v163c-43 -2 -45 -12 -45 -70c0 -57 2 -76 45 -93zM280 295v-184c45 2 46 16 46 71v27c0 50 -2 67 -46 86zM32 168v61h136v-60c0 -45 3 -57 46 -59v206c-1 1 -3 1 -6 2c-133 38 -172 55 -172 202c0 167 32 208 187 212v81h66v-81c137 -3 175 -31 175 -134v-83
h-130v65c0 26 -3 33 -45 34v-183s1 -1 3 -1c170 -46 176 -81 176 -235c0 -158 -54 -198 -188 -203v-94h-66v94c-108 2 -182 24 -182 176z" />
    <glyph glyph-name="percent" unicode="%" horiz-adv-x="870" 
d="M641 307v-175c0 -24 9 -34 44 -34s44 10 44 34v175c0 24 -9 34 -44 34s-44 -10 -44 -34zM529 135v175c0 104 41 143 156 143s156 -39 156 -143v-175c0 -104 -41 -143 -156 -143s-156 39 -156 143zM185 -8l396 739h103l-396 -739h-103zM29 414v175c0 104 41 143 156 143
s156 -39 156 -143v-175c0 -104 -41 -143 -156 -143s-156 39 -156 143zM141 586v-175c0 -24 9 -34 44 -34s44 10 44 34v175c0 24 -9 34 -44 34s-44 -10 -44 -34z" />
    <glyph glyph-name="ampersand" unicode="&#x26;" horiz-adv-x="556" 
d="M185 257v-87c0 -52 8 -60 69 -60c62 0 69 10 69 39c0 7 0 11 -3 15l-97 137c-1 2 -4 3 -10 3c-7 0 -28 -6 -28 -47zM37 137v143c0 67 28 123 110 132c-55 73 -75 112 -75 170c0 114 35 150 186 150s186 -36 186 -150v-52h-142v42c0 34 -12 42 -46 42
c-29 0 -36 -12 -36 -37c0 -14 5 -29 9 -35l111 -165h2v69h130v-251l86 -123l-110 -80c-12 10 -21 23 -28 38c-31 -28 -56 -38 -135 -38h-73c-130 0 -175 47 -175 145z" />
    <glyph glyph-name="quoteright" unicode="&#x2019;" horiz-adv-x="222" 
d="M37 570v154h148v-172c0 -104 -69 -140 -143 -140v76c41 6 59 22 59 63c0 6 -1 12 -1 19h-63z" />
    <glyph glyph-name="parenleft" unicode="(" horiz-adv-x="333" 
d="M57 186v352c0 138 53 194 174 194h45v-118c-42 0 -65 -36 -65 -87v-330c0 -51 17 -81 65 -87v-118h-45c-121 0 -174 56 -174 194z" />
    <glyph glyph-name="parenright" unicode=")" horiz-adv-x="333" 
d="M57 -8v118c42 0 65 36 65 87v330c0 51 -17 81 -65 87v118h45c121 0 174 -56 174 -194v-352c0 -138 -53 -194 -174 -194h-45z" />
    <glyph glyph-name="asterisk" unicode="*" 
d="M170 542v-84l62 -48l62 48v84l-62 48zM82 311l82 147l-142 -14v108l142 -10l-82 143l103 47l46 -136h2l46 136l103 -47l-82 -143l142 10v-108l-142 14l82 -147l-102 -47l-47 140h-2l-47 -140z" />
    <glyph glyph-name="plus" unicode="+" horiz-adv-x="600" 
d="M47 197v112h197v197h112v-197h197v-112h-197v-197h-112v197h-197z" />
    <glyph glyph-name="comma" unicode="," horiz-adv-x="250" 
d="M56 -158v76c41 6 59 22 59 63c0 6 -1 12 -1 19h-63v154h148v-172c0 -104 -69 -140 -143 -140z" />
    <glyph glyph-name="hyphen" unicode="-" horiz-adv-x="333" 
d="M36 200v130h261v-130h-261z" />
    <glyph glyph-name="period" unicode="." horiz-adv-x="250" 
d="M51 0v154h148v-154h-148z" />
    <glyph glyph-name="slash" unicode="/" horiz-adv-x="296" 
d="M-40 -8l257 740h119l-257 -740h-119z" />
    <glyph glyph-name="zero" unicode="0" horiz-adv-x="500" 
d="M208 581v-438c0 -25 12 -33 42 -33s42 8 42 33v444c0 20 -12 27 -42 27s-42 -8 -42 -33zM42 159v385c-2 154 66 188 208 188c149 0 208 -31 208 -188v-385c0 -136 -59 -167 -208 -167s-208 31 -208 167z" />
    <glyph glyph-name="one" unicode="1" horiz-adv-x="500" 
d="M15 524l154 200h210v-724h-166v600h-2l-107 -163z" />
    <glyph glyph-name="two" unicode="2" horiz-adv-x="500" 
d="M56 457v116c0 135 69 159 194 159c190 0 192 -53 192 -232c0 -163 -7 -177 -138 -237c-76 -35 -101 -55 -101 -117v-22h235v-124h-389v150c0 101 33 156 159 213c64 29 68 37 68 104v78c0 62 -9 69 -32 69s-34 -10 -34 -31v-126h-154z" />
    <glyph glyph-name="three" unicode="3" horiz-adv-x="500" 
d="M37 513v79c0 100 60 140 199 140c165 0 198 -47 198 -166c0 -143 -14 -169 -96 -183v-2c95 -14 104 -63 104 -187c0 -149 -32 -202 -210 -202c-170 0 -195 49 -195 147v102h154v-82c0 -33 4 -49 44 -49c43 0 47 17 47 101c0 99 -6 103 -65 103h-71v118h45
c76 0 83 9 83 120c0 56 -8 62 -40 62s-43 -6 -43 -35v-66h-154z" />
    <glyph glyph-name="four" unicode="4" horiz-adv-x="500" 
d="M19 149v173l157 402h247v-451h45v-124h-45v-149h-154v149h-250zM269 273v363h-2l-118 -363h120z" />
    <glyph glyph-name="five" unicode="5" horiz-adv-x="500" 
d="M51 151v69h154v-81c0 -24 17 -29 40 -29c21 0 38 5 38 29v223c0 23 -11 30 -41 30c-32 0 -43 -7 -43 -30v-30h-136v392h355v-124h-207v-138h2c17 34 58 48 99 48c71 0 137 -15 137 -139v-221c0 -142 -92 -158 -201 -158c-132 0 -197 22 -197 159z" />
    <glyph glyph-name="six" unicode="6" horiz-adv-x="500" 
d="M210 305v-155c0 -29 8 -40 42 -40c36 0 44 11 44 40v155c0 29 -8 40 -44 40c-34 0 -42 -11 -42 -40zM44 140v443c0 113 53 149 199 149c160 0 198 -33 198 -115v-86h-148v47c0 27 -10 36 -42 36c-31 0 -41 -9 -41 -36v-169h2c30 38 54 48 102 48c83 0 143 -20 142 -126
v-182c0 -128 -47 -157 -206 -157c-181 0 -206 45 -206 148z" />
    <glyph glyph-name="seven" unicode="7" horiz-adv-x="500" 
d="M51 600v124h368v-123l-155 -601h-168l159 600h-204z" />
    <glyph glyph-name="eight" unicode="8" horiz-adv-x="500" 
d="M204 279v-134c0 -24 12 -35 46 -35s46 11 46 35v134c0 24 -12 35 -46 35s-46 -11 -46 -35zM204 578v-122c0 -26 11 -36 46 -36s46 10 46 36v122c0 26 -11 36 -46 36s-46 -10 -46 -36zM32 195c0 91 7 158 107 180v1c-78 21 -95 56 -95 157c0 134 20 199 206 199
s206 -65 206 -199c0 -101 -17 -137 -95 -158v-1c100 -21 107 -88 107 -179c0 -156 -68 -203 -218 -203s-218 47 -218 203z" />
    <glyph glyph-name="nine" unicode="9" horiz-adv-x="500" 
d="M203 580v-138c0 -29 9 -40 47 -40c30 0 47 10 47 38v140c0 27 -10 34 -47 34s-47 -7 -47 -34zM43 125v93h160v-72c0 -26 4 -36 44 -36c31 0 48 6 48 41v191h-4c-22 -37 -43 -52 -103 -52c-140 0 -151 50 -151 188c0 218 15 254 215 254c159 0 211 -26 211 -155v-341
c0 -226 -54 -244 -237 -244c-168 0 -183 39 -183 133z" />
    <glyph glyph-name="colon" unicode=":" horiz-adv-x="250" 
d="M51 0v154h148v-154h-148zM51 356v154h148v-154h-148z" />
    <glyph glyph-name="semicolon" unicode=";" horiz-adv-x="250" 
d="M56 -158v76c41 6 59 22 59 63c0 6 -1 12 -1 19h-63v154h148v-172c0 -104 -69 -140 -143 -140zM51 356v154h148v-154h-148z" />
    <glyph glyph-name="less" unicode="&#x3c;" horiz-adv-x="600" 
d="M47 208v90l506 216v-108l-362 -153l362 -153v-108z" />
    <glyph glyph-name="equal" unicode="=" horiz-adv-x="600" 
d="M47 309v112h506v-112h-506zM47 85v112h506v-112h-506z" />
    <glyph glyph-name="greater" unicode="&#x3e;" horiz-adv-x="600" 
d="M47 -8v108l362 153l-362 153v108l506 -216v-90z" />
    <glyph glyph-name="question" unicode="?" horiz-adv-x="426" 
d="M7 504v61c0 138 49 167 181 167c187 0 219 -28 219 -207c0 -125 -18 -144 -76 -179s-61 -42 -61 -73v-52h-154v80c0 64 14 80 78 121c49 32 53 39 53 120c0 65 -6 72 -43 72c-33 0 -43 -11 -43 -35v-75h-154zM116 0v154h154v-154h-154z" />
    <glyph glyph-name="at" unicode="@" horiz-adv-x="800" 
d="M306 330c0 -46 22 -77 73 -80c66 0 111 58 111 114c0 50 -32 84 -79 84c-62 0 -105 -61 -105 -118zM520 495l12 48h92l-51 -243c-5 -25 -7 -36 -7 -45c0 -10 5 -14 13 -14c44 0 103 56 103 158c0 159 -117 245 -269 245c-168 0 -277 -122 -277 -282
c0 -172 123 -282 296 -282c78 0 148 27 200 69l93 -4c-71 -98 -177 -153 -303 -153c-212 -2 -392 138 -392 370c0 210 174 370 387 370c180 0 353 -118 353 -302c0 -218 -195 -286 -257 -286c-30 0 -55 18 -56 52h-2c-23 -32 -52 -52 -101 -52c-88 0 -166 81 -166 175
c0 120 83 235 210 235c50 0 93 -18 122 -59z" />
    <glyph glyph-name="A" unicode="A" horiz-adv-x="520" 
d="M300 298l-39 326h-2l-39 -326h80zM16 0l109 724h270l109 -724h-169l-21 174h-108l-21 -174h-169z" />
    <glyph glyph-name="B" unicode="B" horiz-adv-x="538" 
d="M221 600v-171h40c48 0 54 16 54 64v44c0 47 -6 63 -54 63h-40zM55 0v724h245c144 0 181 -30 181 -175c0 -95 -7 -155 -108 -172v-2c103 -8 120 -81 120 -169c0 -152 -35 -206 -166 -206h-272zM221 311v-187h49c41 0 51 12 51 67v54c0 54 -12 66 -51 66h-49z" />
    <glyph glyph-name="C" unicode="C" horiz-adv-x="500" 
d="M45 147v409c0 116 44 176 167 176h62c145 0 189 -40 189 -124v-132h-160v95c0 22 -15 31 -42 31c-29 0 -44 -9 -44 -31v-418c0 -22 15 -31 43 -31s43 9 43 31v114h160v-107c0 -128 -49 -168 -189 -168h-62c-123 0 -167 61 -167 155z" />
    <glyph glyph-name="D" unicode="D" horiz-adv-x="520" 
d="M221 600v-470h44c36 0 44 16 44 70v330c0 54 -8 70 -44 70h-44zM55 0v724h216c155 0 204 -34 204 -272v-181c0 -238 -49 -271 -204 -271h-216z" />
    <glyph glyph-name="E" unicode="E" horiz-adv-x="426" 
d="M55 0v724h319v-130h-153v-159h142v-124h-142v-181h165v-130h-331z" />
    <glyph glyph-name="F" unicode="F" horiz-adv-x="389" 
d="M55 0v724h313v-130h-147v-179h134v-130h-134v-285h-166z" />
    <glyph glyph-name="G" unicode="G" horiz-adv-x="520" 
d="M45 141v442c0 118 76 149 215 149c131 0 215 -22 215 -171v-71h-160v76c0 33 -12 42 -54 42c-32 0 -44 -9 -44 -45v-420c0 -18 12 -27 45 -27c41 0 53 9 53 24v114h-51v136h211v-233c0 -140 -56 -165 -215 -165c-139 0 -215 31 -215 149z" />
    <glyph glyph-name="H" unicode="H" horiz-adv-x="538" 
d="M55 0v724h166v-283h96v283h166v-724h-166v311h-96v-311h-166z" />
    <glyph glyph-name="I" unicode="I" horiz-adv-x="296" 
d="M65 0v724h166v-724h-166z" />
    <glyph glyph-name="J" unicode="J" horiz-adv-x="426" 
d="M15 122v139h148v-111c0 -18 4 -28 26 -28s26 10 26 28v574h166v-578c0 -117 -53 -154 -198 -154c-141 0 -168 49 -168 130z" />
    <glyph glyph-name="K" unicode="K" horiz-adv-x="520" 
d="M55 0v724h166v-305l-1 -2h2l106 307h178l-141 -344l159 -380h-178l-124 323h-2l1 -2v-321h-166z" />
    <glyph glyph-name="L" unicode="L" horiz-adv-x="407" 
d="M55 0v724h166v-594h161v-130h-327z" />
    <glyph glyph-name="M" unicode="M" horiz-adv-x="796" 
d="M297 0l-92 612h-2v-612h-148v724h261l81 -570h2l81 570h261v-724h-151l6 610h-2l-107 -610h-190z" />
    <glyph glyph-name="N" unicode="N" horiz-adv-x="630" 
d="M327 0l-121 564h-2l10 -564h-153v724h242l122 -564l2 2l-12 562h154v-724h-242z" />
    <glyph glyph-name="O" unicode="O" horiz-adv-x="520" 
d="M303 150v424c0 27 -12 34 -43 34s-43 -7 -43 -34v-424c0 -27 12 -34 43 -34s43 7 43 34zM45 141v442c0 118 76 149 215 149s215 -31 215 -149v-442c0 -118 -76 -149 -215 -149s-215 31 -215 149z" />
    <glyph glyph-name="P" unicode="P" horiz-adv-x="500" 
d="M55 0v724h239c120 0 185 -44 185 -176v-126c0 -173 -53 -216 -202 -216h-56v-206h-166zM221 336h49c24 0 37 13 37 53v174c0 24 -9 31 -38 31h-48v-258z" />
    <glyph glyph-name="Q" unicode="Q" horiz-adv-x="520" 
d="M217 574v-424c0 -27 12 -34 43 -34s43 7 43 34v6l-71 102l51 67l18 -28h2v277c0 27 -12 34 -43 34s-43 -7 -43 -34zM45 141v442c0 118 76 149 215 149s215 -31 215 -149v-442c0 -27 -4 -49 -12 -68l36 -50l-56 -68l-41 59c-33 -16 -82 -22 -142 -22
c-139 0 -215 31 -215 149z" />
    <glyph glyph-name="R" unicode="R" horiz-adv-x="538" 
d="M221 600v-226h32c59 0 69 16 69 63v109c0 37 -15 54 -51 54h-50zM55 0v724h205c178 0 228 -37 228 -173v-87c0 -110 -43 -135 -113 -147v-2c74 -16 113 -29 113 -118v-197h-166v207c0 30 -17 43 -73 43h-28v-250h-166z" />
    <glyph glyph-name="S" unicode="S" horiz-adv-x="500" 
d="M195 238v-52c0 -50 0 -70 49 -70c37 0 49 12 49 43v78c0 50 -11 53 -98 74c-129 31 -154 62 -154 191v44c0 169 52 186 210 186c144 0 192 -40 192 -141v-87h-148v35c0 64 -5 69 -47 69c-44 0 -47 -18 -47 -52v-48c0 -46 12 -54 61 -66c177 -46 197 -59 197 -245
c0 -174 -64 -205 -205 -205c-180 0 -213 42 -213 186v60h154z" />
    <glyph glyph-name="T" unicode="T" horiz-adv-x="426" 
d="M130 0v594h-116v130h398v-130h-116v-594h-166z" />
    <glyph glyph-name="U" unicode="U" horiz-adv-x="520" 
d="M470 724v-551c0 -161 -77 -181 -210 -181s-210 20 -210 181v551h166v-556c0 -28 11 -46 44 -46s44 18 44 46v556h166z" />
    <glyph glyph-name="V" unicode="V" horiz-adv-x="500" 
d="M109 0l-96 724h170l66 -636h2l66 636h170l-96 -724h-282z" />
    <glyph glyph-name="W" unicode="W" horiz-adv-x="796" 
d="M94 0l-81 724h160l45 -618h2l66 618h224l66 -618h2l45 618h160l-81 -724h-234l-69 600h-2l-69 -600h-234z" />
    <glyph glyph-name="X" unicode="X" horiz-adv-x="500" 
d="M21 0l90 380l-82 344h163l57 -303h2l57 303h163l-82 -344l90 -380h-169l-59 323h-2l-59 -323h-169z" />
    <glyph glyph-name="Y" unicode="Y" 
d="M152 0v234l-152 490h164l67 -326h2l67 326h164l-152 -490v-234h-160z" />
    <glyph glyph-name="Z" unicode="Z" horiz-adv-x="426" 
d="M44 594v130h345v-126l-185 -468h185v-130h-364v124l186 470h-167z" />
    <glyph glyph-name="bracketleft" unicode="[" horiz-adv-x="333" 
d="M57 0v724h219v-118h-65v-488h65v-118h-219z" />
    <glyph glyph-name="backslash" unicode="\" horiz-adv-x="296" 
d="M217 -8l-257 740h119l257 -740h-119z" />
    <glyph glyph-name="bracketright" unicode="]" horiz-adv-x="333" 
d="M122 118v488h-65v118h219v-724h-219v118h65z" />
    <glyph glyph-name="asciicircum" unicode="^" horiz-adv-x="600" 
d="M70 349l180 375h100l180 -375h-110l-120 263l-120 -263h-110z" />
    <glyph glyph-name="underscore" unicode="_" horiz-adv-x="500" 
d="M0 -125v50h500v-50h-500z" />
    <glyph glyph-name="quoteleft" unicode="&#x2018;" horiz-adv-x="222" 
d="M37 412v172c0 104 69 140 143 140v-76c-41 -6 -59 -22 -59 -63c0 -6 1 -12 1 -19h63v-154h-148z" />
    <glyph glyph-name="a" unicode="a" horiz-adv-x="444" 
d="M45 364v64c0 75 50 90 163 90c132 0 189 -19 189 -144v-374h-142v43h-2c-32 -43 -51 -51 -107 -51c-102 0 -123 60 -123 165c0 125 47 156 128 156c36 0 70 -10 98 -33v113c0 17 -13 25 -38 25c-22 0 -36 -7 -36 -26v-28h-130zM177 176v-29c1 -33 9 -43 36 -43
c31 0 36 17 36 37v41c0 26 -7 37 -36 37c-24 0 -36 -9 -36 -43z" />
    <glyph glyph-name="b" unicode="b" 
d="M195 372v-234c0 -19 12 -28 34 -28s34 9 34 28v234c0 19 -12 28 -34 28s-34 -9 -34 -28zM47 0v724h148v-259h2c24 34 56 53 109 53c63 0 111 -24 111 -103v-284c0 -104 -29 -139 -121 -139c-51 0 -77 8 -106 61h-2v-53h-141z" />
    <glyph glyph-name="c" unicode="c" horiz-adv-x="444" 
d="M37 154v202c0 137 68 162 202 162c70 0 162 -16 162 -98v-87h-130v26c0 34 -11 47 -40 47s-40 -13 -40 -47v-208c0 -34 11 -47 40 -47s40 13 40 47v48h136v-45c0 -112 -15 -162 -174 -162c-128 0 -196 25 -196 162z" />
    <glyph glyph-name="d" unicode="d" 
d="M47 131v284c0 79 48 103 111 103c53 0 85 -19 109 -53h2v259h148v-724h-141v53h-2c-29 -53 -55 -61 -108 -61c-90 0 -119 35 -119 139zM201 372v-234c0 -19 12 -28 34 -28s34 9 34 28v234c0 19 -12 28 -34 28s-34 -9 -34 -28z" />
    <glyph glyph-name="e" unicode="e" 
d="M37 154v202c0 137 68 162 195 162c162 0 195 -61 195 -141v-158h-236v-86c0 -27 6 -35 44 -35c29 0 42 6 42 36v24h150v-29c0 -107 -45 -137 -195 -137c-127 0 -195 25 -195 162zM191 388v-75h82v75c0 21 -7 30 -41 30s-41 -9 -41 -30z" />
    <glyph glyph-name="f" unicode="f" horiz-adv-x="278" 
d="M10 398v112h42v102c0 74 64 120 141 120c27 0 54 0 80 -4v-104c-5 1 -9 2 -14 2h-7c-32 0 -52 -11 -52 -39v-77h71v-112h-71v-398h-148v398h-42z" />
    <glyph glyph-name="g" unicode="g" 
d="M195 376v-244c0 -22 10 -30 37 -30s37 8 37 30v244c0 22 -10 30 -37 30s-37 -8 -37 -30zM47 121v263c0 88 39 134 108 134c58 0 91 -12 123 -55h2v47h137v-555c0 -116 -65 -143 -200 -143c-117 0 -154 46 -154 113v27h130v-11c0 -16 11 -23 38 -23s38 7 38 34v91h-2
c-23 -31 -57 -47 -101 -47c-93 0 -119 57 -119 125z" />
    <glyph glyph-name="h" unicode="h" 
d="M47 0v724h148v-270h2c21 45 56 64 104 64c65 0 116 -29 116 -117v-401h-148v365c0 22 -10 35 -38 35c-26 0 -36 -13 -36 -35v-365h-148z" />
    <glyph glyph-name="i" unicode="i" horiz-adv-x="242" 
d="M47 0v510h148v-510h-148zM47 606v118h148v-118h-148z" />
    <glyph glyph-name="j" unicode="j" horiz-adv-x="242" 
d="M3 -183v113c31 0 44 12 44 61v519h148v-573c0 -85 -39 -125 -128 -125c-19 0 -41 2 -64 5zM47 606v118h148v-118h-148z" />
    <glyph glyph-name="k" unicode="k" horiz-adv-x="426" 
d="M47 0v724h148v-401h2l67 187h146l-76 -224l100 -286h-158l-79 252h-2v-252h-148z" />
    <glyph glyph-name="l" unicode="l" horiz-adv-x="242" 
d="M47 0v724h148v-724h-148z" />
    <glyph glyph-name="m" unicode="m" horiz-adv-x="686" 
d="M47 0v510h148v-56h2c21 45 56 64 110 64c43 1 88 -12 112 -64c21 45 56 64 109 64c60 0 111 -29 111 -117v-401h-148v365c0 22 -10 35 -38 35c-26 0 -36 -13 -36 -35v-365h-148v365c0 22 -10 35 -38 35c-26 0 -36 -13 -36 -35v-365h-148z" />
    <glyph glyph-name="n" unicode="n" 
d="M47 0v510h148v-56h2c21 45 56 64 104 64c65 0 116 -29 116 -117v-401h-148v365c0 22 -10 35 -38 35c-26 0 -36 -13 -36 -35v-365h-148z" />
    <glyph glyph-name="o" unicode="o" 
d="M37 154v202c0 137 68 162 195 162s195 -25 195 -162v-202c0 -137 -68 -162 -195 -162s-195 25 -195 162zM191 369v-228c0 -31 12 -37 41 -37s41 6 41 37v228c0 31 -12 37 -41 37s-41 -6 -41 -37z" />
    <glyph glyph-name="p" unicode="p" 
d="M195 372v-234c0 -19 12 -28 34 -28s34 9 34 28v234c0 19 -12 28 -34 28s-34 -9 -34 -28zM47 -188v698h142v-53h2c28 53 54 61 107 61c90 0 119 -35 119 -139v-284c0 -79 -48 -103 -111 -103c-53 0 -85 19 -109 53h-2v-233h-148z" />
    <glyph glyph-name="q" unicode="q" 
d="M201 372v-234c0 -19 12 -28 34 -28s34 9 34 28v234c0 19 -12 28 -34 28s-34 -9 -34 -28zM47 95v284c0 104 29 139 119 139c53 0 79 -8 108 -61h2v53h141v-698h-148v233h-2c-24 -34 -56 -53 -109 -53c-63 0 -111 24 -111 103z" />
    <glyph glyph-name="r" unicode="r" horiz-adv-x="389" 
d="M47 0v510h142v-51h2c20 47 44 59 101 59c53 0 86 -13 87 -76v-138h-124v76c0 16 -14 20 -30 20c-17 0 -30 -6 -30 -27v-373h-148z" />
    <glyph glyph-name="s" unicode="s" horiz-adv-x="427" 
d="M38 113v45h136v-14c0 -38 8 -46 35 -46s38 8 35 46c-3 43 -7 45 -80 56c-104 15 -129 49 -129 148c0 149 38 167 174 170c129 3 171 -28 171 -101v-59h-130v24c0 23 -10 36 -33 36c-28 0 -34 -11 -34 -46c0 -34 6 -42 67 -51c117 -18 140 -35 142 -147
c3 -159 -55 -182 -175 -182c-132 0 -179 23 -179 121z" />
    <glyph glyph-name="t" unicode="t" horiz-adv-x="315" 
d="M23 398v112h42v133h148v-133h86v-112h-86v-255c0 -26 6 -39 38 -39c13 0 26 2 38 3v-111c-28 -1 -63 -4 -94 -4c-90 0 -130 34 -130 112v294h-42z" />
    <glyph glyph-name="u" unicode="u" 
d="M47 109v401h148v-365c0 -22 10 -35 38 -35c26 0 36 13 36 35v365h148v-510h-148v56h-2c-21 -45 -56 -64 -104 -64c-65 0 -116 29 -116 117z" />
    <glyph glyph-name="v" unicode="v" horiz-adv-x="408" 
d="M85 0l-75 510h148l45 -422h2l45 422h148l-75 -510h-238z" />
    <glyph glyph-name="w" unicode="w" horiz-adv-x="704" 
d="M90 0l-76 510h139l46 -416h2l46 416h210l46 -416h2l46 416h139l-76 -510h-220l-41 404h-2l-41 -404h-220z" />
    <glyph glyph-name="x" unicode="x" horiz-adv-x="444" 
d="M24 0l72 276l-60 234h145l40 -210h2l40 210h145l-64 -234l76 -276h-149l-48 223h-2l-48 -223h-149z" />
    <glyph glyph-name="y" unicode="y" horiz-adv-x="408" 
d="M81 0l-71 510h148l45 -422h2l45 422h148l-85 -570c-16 -109 -78 -128 -165 -128c-13 0 -44 3 -66 14v100c12 -3 24 -8 41 -8c13 0 31 2 44 17c11 13 9 42 14 65h-100z" />
    <glyph glyph-name="z" unicode="z" horiz-adv-x="353" 
d="M25 0v111l144 293h-135v106h287v-123l-138 -281h145v-106h-303z" />
    <glyph glyph-name="braceleft" unicode="{" horiz-adv-x="333" 
d="M-11 306v112c28 0 68 17 68 62v117c0 84 46 127 124 127h105v-118h-34c-28 0 -41 -18 -41 -50v-96c-1 -76 -72 -92 -104 -97v-2c32 -5 103 -21 104 -97v-96c0 -32 13 -50 41 -50h34v-118h-105c-78 0 -124 43 -124 127v117c0 45 -40 62 -68 62z" />
    <glyph glyph-name="bar" unicode="|" horiz-adv-x="222" 
d="M55 750h112v-1000h-112v1000z" />
    <glyph glyph-name="braceright" unicode="}" horiz-adv-x="333" 
d="M344 418v-112c-28 0 -68 -17 -68 -62v-117c0 -84 -46 -127 -124 -127h-105v118h34c28 0 41 18 41 50v96c1 76 72 92 104 97v2c-32 5 -103 21 -104 97v96c0 32 -13 50 -41 50h-34v118h105c78 0 124 -43 124 -127v-117c0 -45 40 -62 68 -62z" />
    <glyph glyph-name="asciitilde" unicode="~" horiz-adv-x="600" 
d="M105 160l-36 96c22 42 58 86 125 86c34 0 73 -15 111 -32c37 -16 75 -35 102 -35c40 0 65 36 88 71l36 -97c-30 -42 -63 -85 -125 -85c-37 0 -69 14 -102 32c-32 18 -69 34 -115 34c-44 0 -68 -36 -84 -70z" />
    <glyph glyph-name="exclamdown" unicode="&#xa1;" horiz-adv-x="278" 
d="M65 -180v502h148v-502h-148zM65 390v154h148v-154h-148z" />
    <glyph glyph-name="cent" unicode="&#xa2;" horiz-adv-x="500" 
d="M212 372v-156h2l80 192c-9 2 -19 4 -40 4c-30 0 -42 -9 -42 -40zM64 166v180c0 147 68 172 180 172c32 0 64 -2 90 -8l51 113h65l-58 -136c21 -16 33 -37 33 -67v-86h-106l-98 -230c4 -3 13 -6 30 -6c41 0 50 10 50 40v61h130v-70c0 -82 -15 -137 -174 -137
c-29 0 -56 1 -78 6l-52 -124h-66l61 145c-38 23 -58 67 -58 147z" />
    <glyph glyph-name="sterling" unicode="&#xa3;" horiz-adv-x="500" 
d="M35 263v118h66c-3 67 -9 131 -9 191c0 78 13 160 176 160c129 0 202 -28 202 -153v-61h-148v57c0 33 -11 39 -35 39c-27 0 -41 -9 -41 -36c-1 -41 10 -117 17 -197h121v-118h-118c0 -35 0 -79 -11 -133h217v-130h-437v124c61 3 71 22 71 82c0 19 0 37 -2 57h-69z" />
    <glyph glyph-name="fraction" unicode="&#x2044;" horiz-adv-x="167" 
d="M-166 -8l395 740h104l-395 -740h-104z" />
    <glyph glyph-name="yen" unicode="&#xa5;" horiz-adv-x="500" 
d="M173 0v113h-140v94h140v27l-16 53h-124v94h94l-106 343h161l67 -326h2l67 326h161l-106 -343h94v-94h-124l-16 -53v-27h140v-94h-140v-113h-154z" />
    <glyph glyph-name="florin" unicode="&#x192;" horiz-adv-x="500" 
d="M-15 -177v122c17 -9 34 -15 53 -15c38 0 54 29 66 105l51 328h-81v112h94c27 176 77 257 236 257c21 0 50 -4 68 -7v-118c-14 3 -30 7 -47 7c-54 0 -81 -35 -95 -139h89v-112h-103l-48 -310c-28 -182 -80 -241 -193 -241c-40 0 -77 5 -90 11z" />
    <glyph glyph-name="section" unicode="&#xa7;" horiz-adv-x="538" 
d="M65 107v42h142v-11c0 -31 7 -40 49 -40c38 0 53 3 53 33c0 31 -19 40 -118 74c-78 27 -141 63 -141 147c0 63 26 95 75 123c-35 29 -44 78 -44 112c0 81 41 145 185 145c157 0 196 -35 196 -152h-142v6c0 35 -11 40 -40 40c-32 0 -45 -9 -45 -40c0 -28 12 -36 108 -64
c89 -27 145 -59 145 -164c0 -50 -22 -96 -69 -115c30 -30 44 -68 44 -114c0 -94 -43 -137 -201 -137c-149 0 -196 39 -197 115zM174 394c0 -49 123 -57 172 -98c11 4 18 19 18 33c0 58 -132 72 -171 99c-13 -8 -19 -21 -19 -34z" />
    <glyph glyph-name="currency" unicode="&#xa4;" horiz-adv-x="500" 
d="M114 362c0 -80 58 -142 136 -142s136 62 136 142s-58 142 -136 142s-136 -62 -136 -142zM-12 164l58 58c-28 39 -44 88 -44 140c0 53 16 102 43 141l-57 57l64 64l58 -57c41 27 89 43 140 43c53 0 102 -16 141 -43l57 57l64 -64l-58 -58c28 -41 44 -89 44 -140
c0 -52 -16 -100 -44 -140l58 -58l-64 -64l-58 58c-39 -28 -88 -44 -140 -44s-100 16 -140 44l-58 -58z" />
    <glyph glyph-name="quotesingle" unicode="'" horiz-adv-x="222" 
d="M55 412v312h112v-312h-112z" />
    <glyph glyph-name="quotedblleft" unicode="&#x201c;" horiz-adv-x="407" 
d="M226 412v172c0 104 69 140 143 140v-76c-41 -6 -59 -22 -59 -63c0 -6 0 -12 1 -19h63v-154h-148zM33 412v172c0 104 69 140 143 140v-76c-41 -6 -59 -22 -59 -63c0 -6 0 -12 1 -19h63v-154h-148z" />
    <glyph glyph-name="guillemotleft" unicode="&#xab;" horiz-adv-x="537" 
d="M338 88l-88 178l88 176h152l-87 -177l88 -177h-153zM134 88l-88 177l88 177h153l-88 -177l88 -177h-153z" />
    <glyph glyph-name="guilsinglleft" unicode="&#x2039;" horiz-adv-x="333" 
d="M134 88l-88 177l88 177h153l-88 -177l88 -177h-153z" />
    <glyph glyph-name="guilsinglright" unicode="&#x203a;" horiz-adv-x="333" 
d="M46 88l88 177l-88 177h153l88 -177l-88 -177h-153z" />
    <glyph glyph-name="fi" unicode="&#xfb01;" horiz-adv-x="537" 
d="M10 398v112h42v102c0 74 64 120 141 120c27 0 54 0 80 -4v-104c-5 1 -9 2 -14 2h-7c-32 0 -52 -11 -52 -39v-77h71v-112h-71v-398h-148v398h-42zM342 0v510h148v-510h-148zM342 606v118h148v-118h-148z" />
    <glyph glyph-name="fl" unicode="&#xfb02;" horiz-adv-x="537" 
d="M342 0v724h148v-724h-148zM10 398v112h42v102c0 74 64 120 141 120c27 0 54 0 80 -4v-104c-5 1 -9 2 -14 2h-7c-32 0 -52 -11 -52 -39v-77h71v-112h-71v-398h-148v398h-42z" />
    <glyph glyph-name="endash" unicode="&#x2013;" horiz-adv-x="500" 
d="M0 209v112h500v-112h-500z" />
    <glyph glyph-name="dagger" unicode="&#x2020;" horiz-adv-x="408" 
d="M33 410v136h97v178h148v-178h97v-136h-97v-410h-148v410h-97z" />
    <glyph glyph-name="daggerdbl" unicode="&#x2021;" horiz-adv-x="408" 
d="M45 157v136h85v143h-85v136h85v152h148v-152h85v-136h-85v-143h85v-136h-85v-157h-148v157h-85z" />
    <glyph glyph-name="periodcentered" unicode="&#xb7;" horiz-adv-x="250" 
d="M36 287c0 49 40 89 89 89s89 -40 89 -89s-40 -89 -89 -89s-89 40 -89 89z" />
    <glyph glyph-name="paragraph" unicode="&#xb6;" horiz-adv-x="620" 
d="M218 0v416c-120 1 -185 55 -185 152c0 125 85 156 198 156h299v-724h-112v636h-88v-636h-112z" />
    <glyph glyph-name="bullet" unicode="&#x2022;" horiz-adv-x="500" 
d="M69 362c0 100 81 181 181 181s181 -81 181 -181s-81 -181 -181 -181s-181 81 -181 181z" />
    <glyph glyph-name="quotesinglbase" unicode="&#x201a;" horiz-adv-x="222" 
d="M42 -158v76c41 6 59 22 59 63c0 6 -1 12 -1 19h-63v154h148v-172c0 -104 -69 -140 -143 -140z" />
    <glyph glyph-name="quotedblbase" unicode="&#x201e;" horiz-adv-x="407" 
d="M226 0v154h148v-172c0 -104 -69 -140 -143 -140v76c41 6 59 22 59 63c0 6 0 12 -1 19h-63zM33 0v154h148v-172c0 -104 -69 -140 -143 -140v76c41 6 59 22 59 63c0 6 0 12 -1 19h-63z" />
    <glyph glyph-name="quotedblright" unicode="&#x201d;" horiz-adv-x="407" 
d="M38 412v76c41 6 59 22 59 63c0 6 0 12 -1 19h-63v154h148v-172c0 -104 -69 -140 -143 -140zM231 412v76c41 6 59 22 59 63c0 6 0 12 -1 19h-63v154h148v-172c0 -104 -69 -140 -143 -140z" />
    <glyph glyph-name="guillemotright" unicode="&#xbb;" horiz-adv-x="537" 
d="M46 88l88 177l-87 177h152l88 -176l-88 -178h-153zM250 88l88 177l-88 177h153l88 -177l-88 -177h-153z" />
    <glyph glyph-name="ellipsis" unicode="&#x2026;" horiz-adv-x="1000" 
d="M93 0v154h148v-154h-148zM426 0v154h148v-154h-148zM759 0v154h148v-154h-148z" />
    <glyph glyph-name="perthousand" unicode="&#x2030;" horiz-adv-x="1000" 
d="M828 314v-203c0 -14 5 -19 27 -19s27 5 27 19v203c0 14 -5 19 -27 19s-27 -5 -27 -19zM728 119v197c0 102 51 123 127 123c91 0 127 -21 127 -123v-197c0 -86 -35 -127 -127 -127c-87 0 -127 26 -127 127zM433 119v197c0 102 51 123 127 123c91 0 127 -21 127 -123v-197
c0 -86 -35 -127 -127 -127c-87 0 -127 26 -127 127zM533 314v-203c0 -14 5 -19 27 -19s27 5 27 19v203c0 14 -5 19 -27 19s-27 -5 -27 -19zM18 412v197c0 102 51 123 127 123c91 0 127 -21 127 -123v-197c0 -86 -35 -127 -127 -127c-87 0 -127 26 -127 127zM118 607v-203
c0 -14 5 -19 27 -19s27 5 27 19v203c0 14 -5 19 -27 19s-27 -5 -27 -19zM103 -6l395 737h104l-395 -737h-104z" />
    <glyph glyph-name="questiondown" unicode="&#xbf;" horiz-adv-x="426" 
d="M156 271v52h154v-80c0 -64 -14 -80 -78 -121c-49 -32 -53 -39 -53 -120c0 -65 6 -72 43 -72c33 0 43 11 43 35v75h154v-61c0 -138 -49 -167 -181 -167c-187 0 -219 28 -219 207c0 125 18 144 76 179s61 42 61 73zM156 390v154h154v-154h-154z" />
    <glyph glyph-name="grave" unicode="`" horiz-adv-x="242" 
d="M104 576l-148 148h155l92 -148h-99z" />
    <glyph glyph-name="acute" unicode="&#xb4;" horiz-adv-x="242" 
d="M39 576l92 148h155l-148 -148h-99z" />
    <glyph glyph-name="circumflex" unicode="&#x2c6;" horiz-adv-x="242" 
d="M-56 576l115 148h124l115 -148h-113l-64 82l-64 -82h-113z" />
    <glyph glyph-name="tilde" unicode="&#x2dc;" horiz-adv-x="242" 
d="M2 594h-64c15 76 48 125 117 125c54 0 108 -38 137 -38c23 0 43 17 47 43h65c-10 -75 -50 -124 -108 -124c-64 0 -104 35 -150 35c-24 0 -41 -16 -44 -41z" />
    <glyph glyph-name="macron" unicode="&#xaf;" horiz-adv-x="242" 
d="M-45 648v76h332v-76h-332z" />
    <glyph glyph-name="breve" unicode="&#x2d8;" horiz-adv-x="242" 
d="M-46 724h64c11 -53 41 -68 103 -69c62 1 92 16 103 69h64c-12 -95 -72 -145 -167 -145s-155 50 -167 145z" />
    <glyph glyph-name="dotaccent" unicode="&#x2d9;" horiz-adv-x="242" 
d="M56 606v118h130v-118h-130z" />
    <glyph glyph-name="dieresis" unicode="&#xa8;" horiz-adv-x="242" 
d="M-43 606v118h130v-118h-130zM155 606v118h130v-118h-130z" />
    <glyph glyph-name="ring" unicode="&#x2da;" horiz-adv-x="242" 
d="M14 683c0 69 48 107 107 107s107 -38 107 -107c0 -63 -44 -107 -107 -107s-107 44 -107 107zM74 683c0 -26 21 -47 47 -47s47 21 47 47s-21 47 -47 47s-47 -21 -47 -47z" />
    <glyph glyph-name="cedilla" unicode="&#xb8;" horiz-adv-x="242" 
d="M-2 -203l17 39c32 -10 53 -16 84 -16c24 0 45 11 45 39c0 19 -17 35 -41 35c-14 0 -28 -2 -43 -8l-21 24l59 90h54l-43 -61l2 -2c8 4 20 6 31 6c47 0 90 -25 90 -77c0 -61 -59 -94 -127 -94c-48 0 -78 15 -107 25z" />
    <glyph glyph-name="hungarumlaut" unicode="&#x2dd;" horiz-adv-x="242" 
d="M-61 576l92 148h155l-148 -148h-99zM139 576l92 148h155l-148 -148h-99z" />
    <glyph glyph-name="ogonek" unicode="&#x2db;" horiz-adv-x="242" 
d="M232 -158l5 -16c-19 -22 -57 -54 -97 -54c-48 0 -79 30 -79 85c0 67 72 119 120 143h14c-29 -30 -68 -79 -68 -123c0 -33 18 -57 50 -57c24 0 39 10 55 22z" />
    <glyph glyph-name="caron" unicode="&#x2c7;" horiz-adv-x="242" 
d="M59 576l-115 148h113l64 -82l64 82h113l-115 -148h-124z" />
    <glyph glyph-name="emdash" unicode="&#x2014;" horiz-adv-x="1000" 
d="M0 209v112h1000v-112h-1000z" />
    <glyph glyph-name="AE" unicode="&#xc6;" horiz-adv-x="741" 
d="M367 311v295h-25l-89 -295h114zM-9 0l228 724h470v-130h-156v-159h142v-124h-142v-181h168v-130h-334v187h-151l-57 -187h-168z" />
    <glyph glyph-name="ordfeminine" unicode="&#xaa;" horiz-adv-x="289" 
d="M29 638v40c0 45 33 54 116 54c95 0 132 -12 132 -87v-229h-102v26l-2 -2c-20 -25 -33 -30 -81 -30c-66 0 -80 36 -80 110c0 81 31 99 83 99c36 0 58 -6 76 -19v51c0 10 -9 15 -25 15c-14 0 -23 -4 -23 -16v-12h-94zM124 527v-15c1 -20 6 -26 23 -26c21 0 24 11 24 23v22
c0 15 -5 22 -24 22c-15 0 -23 -5 -23 -26z" />
    <glyph glyph-name="Lslash" unicode="&#x141;" horiz-adv-x="407" 
d="M55 0v261l-44 -27v94l44 27v369h166v-278l110 68v-93l-110 -68v-223h161v-130h-327z" />
    <glyph glyph-name="Oslash" unicode="&#xd8;" horiz-adv-x="520" 
d="M45 141v442c0 118 76 149 215 149c57 0 103 -5 136 -19l41 77l78 -38l-53 -99c9 -18 13 -42 13 -70v-442c0 -118 -76 -149 -215 -149c-58 0 -106 6 -139 21l-41 -79l-75 41l52 100c-8 18 -12 40 -12 66zM217 204v-54c0 -27 12 -34 43 -34s43 7 43 34v216h-2zM217 574
v-212h2l84 162v50c0 27 -12 34 -43 34s-43 -7 -43 -34z" />
    <glyph glyph-name="OE" unicode="&#x152;" horiz-adv-x="685" 
d="M312 150v424c0 27 -12 34 -49 34c-29 0 -41 -7 -41 -34v-424c0 -27 12 -34 41 -34c37 0 49 7 49 34zM344 0v31h-2c-18 -32 -61 -39 -118 -39c-111 0 -174 19 -174 147v399c0 138 39 194 168 194c76 0 111 -7 130 -41l2 -2v35h284v-130h-156v-159h144v-124h-144v-181h167
v-130h-301z" />
    <glyph glyph-name="ordmasculine" unicode="&#xba;" horiz-adv-x="302" 
d="M16 507v128c0 82 44 97 135 97c90 0 135 -15 135 -97v-128c0 -82 -45 -97 -135 -97c-91 0 -135 15 -135 97zM128 633v-124c0 -19 7 -23 23 -23s23 4 23 23v124c0 19 -7 23 -23 23s-23 -4 -23 -23z" />
    <glyph glyph-name="ae" unicode="&#xe6;" horiz-adv-x="667" 
d="M45 364v64c0 75 50 90 163 90c71 0 109 -11 121 -38c22 27 70 38 106 38c162 0 195 -61 195 -141v-158h-233v-86c0 -27 6 -35 43 -35c27 0 40 6 40 36v24h150v-29c0 -107 -45 -137 -195 -137c-78 0 -120 9 -135 56h-2c-15 -43 -46 -56 -122 -56c-132 0 -153 60 -153 165
c0 125 47 156 128 156c36 0 70 -10 98 -33v113c0 17 -13 25 -38 25c-22 0 -36 -7 -36 -26v-28h-130zM177 176v-29c1 -33 9 -43 36 -43c31 0 36 17 36 37v41c0 26 -7 37 -36 37c-24 0 -36 -9 -36 -43zM397 382v-69h79v69c0 21 -7 30 -40 30c-32 0 -39 -9 -39 -30z" />
    <glyph glyph-name="dotlessi" unicode="&#x131;" horiz-adv-x="242" 
d="M47 0v510h148v-510h-148z" />
    <glyph glyph-name="lslash" unicode="&#x142;" horiz-adv-x="242" 
d="M47 0v282l-45 -28v94l45 28v348h148v-266l45 28v-94l-45 -28v-364h-148z" />
    <glyph glyph-name="oslash" unicode="&#xf8;" 
d="M191 369v-121h2l80 124c-1 28 -13 34 -41 34c-29 0 -41 -6 -41 -37zM273 141v115h-2l-79 -123c2 -24 14 -29 40 -29c29 0 41 6 41 37zM37 154v202c0 137 68 162 195 162c49 0 89 -4 118 -15l44 71l66 -44l-52 -78c13 -24 19 -55 19 -96v-202c0 -137 -68 -162 -195 -162
c-47 0 -86 3 -115 15l-47 -71l-66 44l53 77c-14 23 -20 55 -20 97z" />
    <glyph glyph-name="oe" unicode="&#x153;" horiz-adv-x="685" 
d="M37 154v202c0 137 68 162 195 162c37 -1 79 -2 112 -40c22 31 57 40 109 40c162 0 195 -61 195 -141v-158h-233v-86c0 -27 6 -35 43 -35c27 0 40 6 40 36v24h150v-29c0 -107 -45 -137 -181 -137c-55 0 -98 5 -126 42c-18 -36 -68 -42 -108 -42c-128 0 -196 25 -196 162z
M191 369v-228c0 -31 12 -37 37 -37s39 6 39 37v228c0 31 -14 37 -39 37s-37 -6 -37 -37zM415 313h79v69c0 21 -7 30 -40 30c-32 0 -39 -9 -39 -30v-69z" />
    <glyph glyph-name="germandbls" unicode="&#xdf;" horiz-adv-x="481" 
d="M47 0v569c0 110 54 163 186 163c136 0 189 -49 189 -178c0 -80 -19 -136 -112 -150v-2c95 -15 134 -53 134 -154v-85c-1 -80 -18 -171 -157 -171c-16 0 -43 5 -60 16v114c9 -3 19 -6 29 -6c30 0 40 11 40 62v66c0 63 -14 79 -68 87v124c41 6 52 18 52 52v64
c0 41 -9 49 -43 49c-25 0 -42 -4 -42 -35v-585h-148z" />
    <glyph glyph-name="onesuperior" unicode="&#xb9;" horiz-adv-x="325" 
d="M4 604l100 120h150v-431h-124v349h-2l-60 -90z" />
    <glyph glyph-name="logicalnot" unicode="&#xac;" horiz-adv-x="600" 
d="M47 309v112h506v-311h-112v199h-394z" />
    <glyph glyph-name="mu" unicode="&#xb5;" 
d="M47 -188v698h148v-365c0 -22 10 -35 38 -35c26 0 36 13 36 35v365h148v-510h-148v56h-2c-12 -50 -32 -56 -46 -56c-12 0 -21 6 -24 18h-2v-206h-148z" />
    <glyph glyph-name="trademark" unicode="&#x2122;" horiz-adv-x="1000" 
d="M830 312v282h-2l-98 -282h-82l-98 282h-2v-282h-106v412h153l94 -252l94 252h153v-412h-106zM158 312v324h-114v88h340v-88h-114v-324h-112z" />
    <glyph glyph-name="Eth" unicode="&#xd0;" horiz-adv-x="520" 
d="M8 311v130h47v283h216c155 0 204 -34 204 -272v-181c0 -238 -49 -271 -204 -271h-216v311h-47zM221 600v-159h47v-130h-47v-181h44c36 0 44 16 44 70v330c0 54 -8 70 -44 70h-44z" />
    <glyph glyph-name="onehalf" unicode="&#xbd;" horiz-adv-x="750" 
d="M126 -8l395 740h104l-395 -740h-104zM4 604l100 120h150v-431h-124v349h-2l-60 -90zM458 0v90c0 61 22 94 104 128c41 17 55 22 55 62v35c0 38 -6 42 -20 42c-15 0 -22 -6 -22 -19v-64h-112v70c0 81 45 95 141 95c135 0 137 -32 137 -139c0 -98 -11 -108 -101 -142
c-53 -20 -70 -33 -70 -70v-6h169v-82h-281z" />
    <glyph glyph-name="plusminus" unicode="&#xb1;" horiz-adv-x="600" 
d="M47 269v112h197v125h112v-125h197v-112h-197v-125h-112v125h-197zM47 0v112h506v-112h-506z" />
    <glyph glyph-name="Thorn" unicode="&#xde;" horiz-adv-x="500" 
d="M55 0v724h166v-80h73c120 0 185 -44 185 -176v-126c0 -173 -53 -216 -202 -216h-56v-126h-166zM221 514v-258h49c24 0 37 13 37 53v174c0 24 -9 31 -38 31h-48z" />
    <glyph glyph-name="onequarter" unicode="&#xbc;" horiz-adv-x="750" 
d="M431 82v108l102 241h179v-267h29v-82h-29v-82h-112v82h-169zM600 164v207h-2l-76 -207h78zM126 -8l395 740h104l-395 -740h-104zM4 604l100 120h150v-431h-124v349h-2l-60 -90z" />
    <glyph glyph-name="divide" unicode="&#xf7;" horiz-adv-x="600" 
d="M47 197v112h506v-112h-506zM212 460c0 49 40 89 89 89s89 -40 89 -89s-40 -89 -89 -89s-89 40 -89 89zM212 46c0 49 40 89 89 89s89 -40 89 -89s-40 -89 -89 -89s-89 40 -89 89z" />
    <glyph glyph-name="brokenbar" unicode="&#xa6;" horiz-adv-x="222" 
d="M55 675h112v-350h-112v350zM55 175h112v-350h-112v350z" />
    <glyph glyph-name="degree" unicode="&#xb0;" horiz-adv-x="400" 
d="M57 589c0 80 63 143 143 143s143 -63 143 -143s-63 -143 -143 -143s-143 63 -143 143zM123 589c0 -43 34 -77 77 -77s77 34 77 77s-34 77 -77 77s-77 -34 -77 -77z" />
    <glyph glyph-name="thorn" unicode="&#xfe;" 
d="M195 372v-234c0 -19 12 -28 35 -28c21 0 33 9 33 28v234c0 19 -12 28 -34 28s-34 -9 -34 -28zM47 -188v912h148v-267h2c22 53 48 61 101 61c90 0 119 -35 119 -139v-284c0 -79 -48 -103 -111 -103c-53 0 -85 19 -109 53h-2v-233h-148z" />
    <glyph glyph-name="threequarters" unicode="&#xbe;" horiz-adv-x="750" 
d="M87 474v82h29c50 0 54 6 54 61c0 30 -5 33 -26 33c-18 0 -26 -3 -26 -21v-27h-112v46c0 60 39 84 136 84c125 0 146 -28 146 -99c0 -86 -9 -102 -62 -111v-4c62 -8 68 -37 68 -112c0 -89 -21 -121 -155 -121c-118 0 -135 30 -135 88v58h112v-35c0 -19 3 -29 29 -29
c28 0 31 10 31 57c0 48 -4 50 -43 50h-46zM431 82v108l102 241h179v-267h29v-82h-29v-82h-112v82h-169zM126 -8l395 740h104l-395 -740h-104zM600 164v207h-2l-76 -207h78z" />
    <glyph glyph-name="twosuperior" unicode="&#xb2;" horiz-adv-x="325" 
d="M21 293v90c0 61 22 94 104 128c41 17 55 22 55 62v35c0 38 -6 42 -20 42c-15 0 -22 -6 -22 -19v-65h-112v71c0 81 45 95 141 95c135 0 137 -32 137 -139c0 -98 -11 -108 -101 -142c-53 -20 -70 -33 -70 -70v-6h169v-82h-281z" />
    <glyph glyph-name="registered" unicode="&#xae;" horiz-adv-x="800" 
d="M30 362c0 204 166 370 370 370s370 -166 370 -370s-166 -370 -370 -370s-370 166 -370 370zM142 362c0 -156 102 -270 258 -270s258 114 258 270s-102 270 -258 270s-258 -114 -258 -270zM253 160v404h149c102 0 162 -29 162 -122c0 -75 -43 -103 -103 -108l95 -174h-94
l-88 169h-33v-169h-88zM341 498v-103h72c37 0 63 8 63 55c0 45 -46 48 -78 48h-57z" />
    <glyph glyph-name="minus" unicode="&#x2212;" horiz-adv-x="600" 
d="M47 197v112h506v-112h-506z" />
    <glyph glyph-name="eth" unicode="&#xf0;" 
d="M37 154v202c5 89 46 146 142 146c38 0 77 -8 99 -40l2 -1c-3 45 -15 91 -50 120l-108 -51l-33 51l82 39c-31 12 -62 21 -94 23l65 100c60 0 122 -16 170 -56l109 51l33 -51l-96 -47c66 -69 69 -160 69 -249v-237c0 -137 -68 -162 -195 -162s-195 25 -195 162zM191 353
v-212c0 -31 12 -37 41 -37s41 6 41 37v212c0 31 -12 37 -41 37s-41 -6 -41 -37z" />
    <glyph glyph-name="multiply" unicode="&#xd7;" horiz-adv-x="600" 
d="M223 253l-158 158l77 77l158 -158l158 158l77 -77l-159 -158l159 -158l-77 -77l-158 159l-158 -159l-77 77z" />
    <glyph glyph-name="threesuperior" unicode="&#xb3;" horiz-adv-x="325" 
d="M97 474v82h29c50 0 54 6 54 61c0 30 -5 33 -26 33c-18 0 -26 -3 -26 -21v-27h-112v46c0 60 39 84 136 84c125 0 146 -28 146 -99c0 -86 -9 -102 -62 -111v-4c62 -8 68 -37 68 -112c0 -89 -21 -121 -155 -121c-118 0 -135 30 -135 88v58h112v-35c0 -19 3 -29 29 -29
c28 0 31 10 31 57c0 48 -4 50 -43 50h-46z" />
    <glyph glyph-name="copyright" unicode="&#xa9;" horiz-adv-x="800" 
d="M482 305h84c-2 -86 -66 -156 -171 -156c-96 0 -178 85 -178 216c0 124 70 216 186 216c91 0 159 -52 163 -152h-84c-7 46 -37 64 -80 64c-57 0 -91 -48 -91 -126c0 -86 38 -130 94 -130c41 0 70 21 77 68zM30 362c0 204 166 370 370 370s370 -166 370 -370
s-166 -370 -370 -370s-370 166 -370 370zM142 362c0 -156 102 -270 258 -270s258 114 258 270s-102 270 -258 270s-258 -114 -258 -270z" />
    <glyph glyph-name="Aacute" unicode="&#xc1;" horiz-adv-x="520" 
d="M300 298l-39 326h-2l-39 -326h80zM16 0l109 724h270l109 -724h-169l-21 174h-108l-21 -174h-169zM178 760l92 148h155l-148 -148h-99z" />
    <glyph glyph-name="Acircumflex" unicode="&#xc2;" horiz-adv-x="520" 
d="M300 298l-39 326h-2l-39 -326h80zM16 0l109 724h270l109 -724h-169l-21 174h-108l-21 -174h-169zM83 760l115 148h124l115 -148h-113l-64 82l-64 -82h-113z" />
    <glyph glyph-name="Adieresis" unicode="&#xc4;" horiz-adv-x="520" 
d="M300 298l-39 326h-2l-39 -326h80zM16 0l109 724h270l109 -724h-169l-21 174h-108l-21 -174h-169zM96 765v118h130v-118h-130zM294 765v118h130v-118h-130z" />
    <glyph glyph-name="Agrave" unicode="&#xc0;" horiz-adv-x="520" 
d="M300 298l-39 326h-2l-39 -326h80zM16 0l109 724h270l109 -724h-169l-21 174h-108l-21 -174h-169zM243 760l-148 148h155l92 -148h-99z" />
    <glyph glyph-name="Aring" unicode="&#xc5;" horiz-adv-x="520" 
d="M300 298l-39 326h-2l-39 -326h80zM16 0l109 724h270l109 -724h-169l-21 174h-108l-21 -174h-169zM153 857c0 69 48 107 107 107s107 -38 107 -107c0 -63 -44 -107 -107 -107s-107 44 -107 107zM213 857c0 -26 21 -47 47 -47s47 21 47 47s-21 47 -47 47s-47 -21 -47 -47z
" />
    <glyph glyph-name="Atilde" unicode="&#xc3;" horiz-adv-x="520" 
d="M300 298l-39 326h-2l-39 -326h80zM16 0l109 724h270l109 -724h-169l-21 174h-108l-21 -174h-169zM141 778h-64c15 76 48 125 117 125c54 0 108 -38 137 -38c23 0 43 17 47 43h65c-10 -75 -50 -124 -108 -124c-64 0 -104 35 -150 35c-24 0 -41 -16 -44 -41z" />
    <glyph glyph-name="Ccedilla" unicode="&#xc7;" horiz-adv-x="500" 
d="M45 147v409c0 116 44 176 167 176h62c145 0 189 -40 189 -124v-132h-160v95c0 22 -15 31 -42 31c-29 0 -44 -9 -44 -31v-418c0 -22 15 -31 43 -31s43 9 43 31v114h160v-107c0 -125 -47 -166 -181 -168l-38 -53l2 -2c8 4 20 6 31 6c47 0 90 -25 90 -77
c0 -61 -59 -94 -127 -94c-48 0 -78 15 -107 25l17 39c32 -10 53 -16 84 -16c24 0 45 11 45 39c0 19 -17 35 -41 35c-14 0 -28 -2 -43 -8l-21 24l54 82h-16c-123 0 -167 61 -167 155z" />
    <glyph glyph-name="Eacute" unicode="&#xc9;" horiz-adv-x="426" 
d="M55 0v724h319v-130h-153v-159h142v-124h-142v-181h165v-130h-331zM131 760l92 148h155l-148 -148h-99z" />
    <glyph glyph-name="Ecircumflex" unicode="&#xca;" horiz-adv-x="426" 
d="M55 0v724h319v-130h-153v-159h142v-124h-142v-181h165v-130h-331zM36 760l115 148h124l115 -148h-113l-64 82l-64 -82h-113z" />
    <glyph glyph-name="Edieresis" unicode="&#xcb;" horiz-adv-x="426" 
d="M55 0v724h319v-130h-153v-159h142v-124h-142v-181h165v-130h-331zM49 765v118h130v-118h-130zM247 765v118h130v-118h-130z" />
    <glyph glyph-name="Egrave" unicode="&#xc8;" horiz-adv-x="426" 
d="M55 0v724h319v-130h-153v-159h142v-124h-142v-181h165v-130h-331zM196 760l-148 148h155l92 -148h-99z" />
    <glyph glyph-name="Iacute" unicode="&#xcd;" horiz-adv-x="296" 
d="M65 0v724h166v-724h-166zM66 760l92 148h155l-148 -148h-99z" />
    <glyph glyph-name="Icircumflex" unicode="&#xce;" horiz-adv-x="296" 
d="M65 0v724h166v-724h-166zM-29 760l115 148h124l115 -148h-113l-64 82l-64 -82h-113z" />
    <glyph glyph-name="Idieresis" unicode="&#xcf;" horiz-adv-x="296" 
d="M65 0v724h166v-724h-166zM-16 765v118h130v-118h-130zM182 765v118h130v-118h-130z" />
    <glyph glyph-name="Igrave" unicode="&#xcc;" horiz-adv-x="296" 
d="M65 0v724h166v-724h-166zM131 760l-148 148h155l92 -148h-99z" />
    <glyph glyph-name="Ntilde" unicode="&#xd1;" horiz-adv-x="630" 
d="M327 0l-121 564h-2l10 -564h-153v724h242l122 -564l2 2l-12 562h154v-724h-242zM196 778h-64c15 76 48 125 117 125c54 0 108 -38 137 -38c23 0 43 17 47 43h65c-10 -75 -50 -124 -108 -124c-64 0 -104 35 -150 35c-24 0 -41 -16 -44 -41z" />
    <glyph glyph-name="Oacute" unicode="&#xd3;" horiz-adv-x="520" 
d="M303 150v424c0 27 -12 34 -43 34s-43 -7 -43 -34v-424c0 -27 12 -34 43 -34s43 7 43 34zM45 141v442c0 118 76 149 215 149s215 -31 215 -149v-442c0 -118 -76 -149 -215 -149s-215 31 -215 149zM178 760l92 148h155l-148 -148h-99z" />
    <glyph glyph-name="Ocircumflex" unicode="&#xd4;" horiz-adv-x="520" 
d="M303 150v424c0 27 -12 34 -43 34s-43 -7 -43 -34v-424c0 -27 12 -34 43 -34s43 7 43 34zM45 141v442c0 118 76 149 215 149s215 -31 215 -149v-442c0 -118 -76 -149 -215 -149s-215 31 -215 149zM83 760l115 148h124l115 -148h-113l-64 82l-64 -82h-113z" />
    <glyph glyph-name="Odieresis" unicode="&#xd6;" horiz-adv-x="520" 
d="M303 150v424c0 27 -12 34 -43 34s-43 -7 -43 -34v-424c0 -27 12 -34 43 -34s43 7 43 34zM45 141v442c0 118 76 149 215 149s215 -31 215 -149v-442c0 -118 -76 -149 -215 -149s-215 31 -215 149zM96 765v118h130v-118h-130zM294 765v118h130v-118h-130z" />
    <glyph glyph-name="Ograve" unicode="&#xd2;" horiz-adv-x="520" 
d="M303 150v424c0 27 -12 34 -43 34s-43 -7 -43 -34v-424c0 -27 12 -34 43 -34s43 7 43 34zM45 141v442c0 118 76 149 215 149s215 -31 215 -149v-442c0 -118 -76 -149 -215 -149s-215 31 -215 149zM243 760l-148 148h155l92 -148h-99z" />
    <glyph glyph-name="Otilde" unicode="&#xd5;" horiz-adv-x="520" 
d="M303 150v424c0 27 -12 34 -43 34s-43 -7 -43 -34v-424c0 -27 12 -34 43 -34s43 7 43 34zM45 141v442c0 118 76 149 215 149s215 -31 215 -149v-442c0 -118 -76 -149 -215 -149s-215 31 -215 149zM141 778h-64c15 76 48 125 117 125c54 0 108 -38 137 -38
c23 0 43 17 47 43h65c-10 -75 -50 -124 -108 -124c-64 0 -104 35 -150 35c-24 0 -41 -16 -44 -41z" />
    <glyph glyph-name="Scaron" unicode="&#x160;" horiz-adv-x="500" 
d="M195 238v-52c0 -50 0 -70 49 -70c37 0 49 12 49 43v78c0 50 -11 53 -98 74c-129 31 -154 62 -154 191v44c0 169 52 186 210 186c144 0 192 -40 192 -141v-87h-148v35c0 64 -5 69 -47 69c-44 0 -47 -18 -47 -52v-48c0 -46 12 -54 61 -66c177 -46 197 -59 197 -245
c0 -174 -64 -205 -205 -205c-180 0 -213 42 -213 186v60h154zM188 760l-115 148h113l64 -82l64 82h113l-115 -148h-124z" />
    <glyph glyph-name="Uacute" unicode="&#xda;" horiz-adv-x="520" 
d="M470 724v-551c0 -161 -77 -181 -210 -181s-210 20 -210 181v551h166v-556c0 -28 11 -46 44 -46s44 18 44 46v556h166zM178 760l92 148h155l-148 -148h-99z" />
    <glyph glyph-name="Ucircumflex" unicode="&#xdb;" horiz-adv-x="520" 
d="M470 724v-551c0 -161 -77 -181 -210 -181s-210 20 -210 181v551h166v-556c0 -28 11 -46 44 -46s44 18 44 46v556h166zM83 760l115 148h124l115 -148h-113l-64 82l-64 -82h-113z" />
    <glyph glyph-name="Udieresis" unicode="&#xdc;" horiz-adv-x="520" 
d="M470 724v-551c0 -161 -77 -181 -210 -181s-210 20 -210 181v551h166v-556c0 -28 11 -46 44 -46s44 18 44 46v556h166zM96 765v118h130v-118h-130zM294 765v118h130v-118h-130z" />
    <glyph glyph-name="Ugrave" unicode="&#xd9;" horiz-adv-x="520" 
d="M470 724v-551c0 -161 -77 -181 -210 -181s-210 20 -210 181v551h166v-556c0 -28 11 -46 44 -46s44 18 44 46v556h166zM243 760l-148 148h155l92 -148h-99z" />
    <glyph glyph-name="Yacute" unicode="&#xdd;" 
d="M152 0v234l-152 490h164l67 -326h2l67 326h164l-152 -490v-234h-160zM150 760l92 148h155l-148 -148h-99z" />
    <glyph glyph-name="Ydieresis" unicode="&#x178;" 
d="M152 0v234l-152 490h164l67 -326h2l67 326h164l-152 -490v-234h-160zM68 765v118h130v-118h-130zM266 765v118h130v-118h-130z" />
    <glyph glyph-name="Zcaron" unicode="&#x17d;" horiz-adv-x="426" 
d="M44 594v130h345v-126l-185 -468h185v-130h-364v124l186 470h-167zM151 760l-115 148h113l64 -82l64 82h113l-115 -148h-124z" />
    <glyph glyph-name="aacute" unicode="&#xe1;" horiz-adv-x="444" 
d="M45 364v64c0 75 50 90 163 90c132 0 189 -19 189 -144v-374h-142v43h-2c-32 -43 -51 -51 -107 -51c-102 0 -123 60 -123 165c0 125 47 156 128 156c36 0 70 -10 98 -33v113c0 17 -13 25 -38 25c-22 0 -36 -7 -36 -26v-28h-130zM177 176v-29c1 -33 9 -43 36 -43
c31 0 36 17 36 37v41c0 26 -7 37 -36 37c-24 0 -36 -9 -36 -43zM140 576l92 148h155l-148 -148h-99z" />
    <glyph glyph-name="acircumflex" unicode="&#xe2;" horiz-adv-x="444" 
d="M45 364v64c0 75 50 90 163 90c132 0 189 -19 189 -144v-374h-142v43h-2c-32 -43 -51 -51 -107 -51c-102 0 -123 60 -123 165c0 125 47 156 128 156c36 0 70 -10 98 -33v113c0 17 -13 25 -38 25c-22 0 -36 -7 -36 -26v-28h-130zM177 176v-29c1 -33 9 -43 36 -43
c31 0 36 17 36 37v41c0 26 -7 37 -36 37c-24 0 -36 -9 -36 -43zM45 576l115 148h124l115 -148h-113l-64 82l-64 -82h-113z" />
    <glyph glyph-name="adieresis" unicode="&#xe4;" horiz-adv-x="444" 
d="M45 364v64c0 75 50 90 163 90c132 0 189 -19 189 -144v-374h-142v43h-2c-32 -43 -51 -51 -107 -51c-102 0 -123 60 -123 165c0 125 47 156 128 156c36 0 70 -10 98 -33v113c0 17 -13 25 -38 25c-22 0 -36 -7 -36 -26v-28h-130zM177 176v-29c1 -33 9 -43 36 -43
c31 0 36 17 36 37v41c0 26 -7 37 -36 37c-24 0 -36 -9 -36 -43zM58 581v118h130v-118h-130zM256 581v118h130v-118h-130z" />
    <glyph glyph-name="agrave" unicode="&#xe0;" horiz-adv-x="444" 
d="M45 364v64c0 75 50 90 163 90c132 0 189 -19 189 -144v-374h-142v43h-2c-32 -43 -51 -51 -107 -51c-102 0 -123 60 -123 165c0 125 47 156 128 156c36 0 70 -10 98 -33v113c0 17 -13 25 -38 25c-22 0 -36 -7 -36 -26v-28h-130zM177 176v-29c1 -33 9 -43 36 -43
c31 0 36 17 36 37v41c0 26 -7 37 -36 37c-24 0 -36 -9 -36 -43zM205 576l-148 148h155l92 -148h-99z" />
    <glyph glyph-name="aring" unicode="&#xe5;" horiz-adv-x="444" 
d="M45 364v64c0 75 50 90 163 90c132 0 189 -19 189 -144v-374h-142v43h-2c-32 -43 -51 -51 -107 -51c-102 0 -123 60 -123 165c0 125 47 156 128 156c36 0 70 -10 98 -33v113c0 17 -13 25 -38 25c-22 0 -36 -7 -36 -26v-28h-130zM177 176v-29c1 -33 9 -43 36 -43
c31 0 36 17 36 37v41c0 26 -7 37 -36 37c-24 0 -36 -9 -36 -43zM115 683c0 69 48 107 107 107s107 -38 107 -107c0 -63 -44 -107 -107 -107s-107 44 -107 107zM175 683c0 -26 21 -47 47 -47s47 21 47 47s-21 47 -47 47s-47 -21 -47 -47z" />
    <glyph glyph-name="atilde" unicode="&#xe3;" horiz-adv-x="444" 
d="M45 364v64c0 75 50 90 163 90c132 0 189 -19 189 -144v-374h-142v43h-2c-32 -43 -51 -51 -107 -51c-102 0 -123 60 -123 165c0 125 47 156 128 156c36 0 70 -10 98 -33v113c0 17 -13 25 -38 25c-22 0 -36 -7 -36 -26v-28h-130zM177 176v-29c1 -33 9 -43 36 -43
c31 0 36 17 36 37v41c0 26 -7 37 -36 37c-24 0 -36 -9 -36 -43zM103 594h-64c15 76 48 125 117 125c54 0 108 -38 137 -38c23 0 43 17 47 43h65c-10 -75 -50 -124 -108 -124c-64 0 -104 35 -150 35c-24 0 -41 -16 -44 -41z" />
    <glyph glyph-name="ccedilla" unicode="&#xe7;" horiz-adv-x="444" 
d="M37 154v202c0 137 68 162 202 162c70 0 162 -16 162 -98v-87h-130v26c0 34 -11 47 -40 47s-40 -13 -40 -47v-208c0 -34 11 -47 40 -47s40 13 40 47v48h136v-45c0 -106 -14 -157 -153 -161l-38 -54l2 -2c8 4 20 6 31 6c47 0 90 -25 90 -77c0 -61 -59 -94 -127 -94
c-48 0 -78 15 -107 25l17 39c32 -10 53 -16 84 -16c24 0 45 11 45 39c0 19 -17 35 -41 35c-14 0 -28 -2 -43 -8l-21 24l55 83c-107 4 -164 36 -164 161z" />
    <glyph glyph-name="eacute" unicode="&#xe9;" 
d="M37 154v202c0 137 68 162 195 162c162 0 195 -61 195 -141v-158h-236v-86c0 -27 6 -35 44 -35c29 0 42 6 42 36v24h150v-29c0 -107 -45 -137 -195 -137c-127 0 -195 25 -195 162zM191 388v-75h82v75c0 21 -7 30 -41 30s-41 -9 -41 -30zM150 576l92 148h155l-148 -148h-99
z" />
    <glyph glyph-name="ecircumflex" unicode="&#xea;" 
d="M37 154v202c0 137 68 162 195 162c162 0 195 -61 195 -141v-158h-236v-86c0 -27 6 -35 44 -35c29 0 42 6 42 36v24h150v-29c0 -107 -45 -137 -195 -137c-127 0 -195 25 -195 162zM191 388v-75h82v75c0 21 -7 30 -41 30s-41 -9 -41 -30zM55 576l115 148h124l115 -148h-113
l-64 82l-64 -82h-113z" />
    <glyph glyph-name="edieresis" unicode="&#xeb;" 
d="M37 154v202c0 137 68 162 195 162c162 0 195 -61 195 -141v-158h-236v-86c0 -27 6 -35 44 -35c29 0 42 6 42 36v24h150v-29c0 -107 -45 -137 -195 -137c-127 0 -195 25 -195 162zM191 388v-75h82v75c0 21 -7 30 -41 30s-41 -9 -41 -30zM68 581v118h130v-118h-130z
M266 581v118h130v-118h-130z" />
    <glyph glyph-name="egrave" unicode="&#xe8;" 
d="M37 154v202c0 137 68 162 195 162c162 0 195 -61 195 -141v-158h-236v-86c0 -27 6 -35 44 -35c29 0 42 6 42 36v24h150v-29c0 -107 -45 -137 -195 -137c-127 0 -195 25 -195 162zM191 388v-75h82v75c0 21 -7 30 -41 30s-41 -9 -41 -30zM215 576l-148 148h155l92 -148h-99
z" />
    <glyph glyph-name="iacute" unicode="&#xed;" horiz-adv-x="242" 
d="M47 0v510h148v-510h-148zM39 576l92 148h155l-148 -148h-99z" />
    <glyph glyph-name="icircumflex" unicode="&#xee;" horiz-adv-x="242" 
d="M47 0v510h148v-510h-148zM-56 576l115 148h124l115 -148h-113l-64 82l-64 -82h-113z" />
    <glyph glyph-name="idieresis" unicode="&#xef;" horiz-adv-x="242" 
d="M47 0v510h148v-510h-148zM-43 581v118h130v-118h-130zM155 581v118h130v-118h-130z" />
    <glyph glyph-name="igrave" unicode="&#xec;" horiz-adv-x="242" 
d="M47 0v510h148v-510h-148zM104 576l-148 148h155l92 -148h-99z" />
    <glyph glyph-name="ntilde" unicode="&#xf1;" 
d="M47 0v510h148v-56h2c21 45 56 64 104 64c65 0 116 -29 116 -117v-401h-148v365c0 22 -10 35 -38 35c-26 0 -36 -13 -36 -35v-365h-148zM113 594h-64c15 76 48 125 117 125c54 0 108 -38 137 -38c23 0 43 17 47 43h65c-10 -75 -50 -124 -108 -124c-64 0 -104 35 -150 35
c-24 0 -41 -16 -44 -41z" />
    <glyph glyph-name="oacute" unicode="&#xf3;" 
d="M37 154v202c0 137 68 162 195 162s195 -25 195 -162v-202c0 -137 -68 -162 -195 -162s-195 25 -195 162zM191 369v-228c0 -31 12 -37 41 -37s41 6 41 37v228c0 31 -12 37 -41 37s-41 -6 -41 -37zM150 576l92 148h155l-148 -148h-99z" />
    <glyph glyph-name="ocircumflex" unicode="&#xf4;" 
d="M37 154v202c0 137 68 162 195 162s195 -25 195 -162v-202c0 -137 -68 -162 -195 -162s-195 25 -195 162zM191 369v-228c0 -31 12 -37 41 -37s41 6 41 37v228c0 31 -12 37 -41 37s-41 -6 -41 -37zM55 576l115 148h124l115 -148h-113l-64 82l-64 -82h-113z" />
    <glyph glyph-name="odieresis" unicode="&#xf6;" 
d="M37 154v202c0 137 68 162 195 162s195 -25 195 -162v-202c0 -137 -68 -162 -195 -162s-195 25 -195 162zM191 369v-228c0 -31 12 -37 41 -37s41 6 41 37v228c0 31 -12 37 -41 37s-41 -6 -41 -37zM68 581v118h130v-118h-130zM266 581v118h130v-118h-130z" />
    <glyph glyph-name="ograve" unicode="&#xf2;" 
d="M37 154v202c0 137 68 162 195 162s195 -25 195 -162v-202c0 -137 -68 -162 -195 -162s-195 25 -195 162zM191 369v-228c0 -31 12 -37 41 -37s41 6 41 37v228c0 31 -12 37 -41 37s-41 -6 -41 -37zM215 576l-148 148h155l92 -148h-99z" />
    <glyph glyph-name="otilde" unicode="&#xf5;" 
d="M37 154v202c0 137 68 162 195 162s195 -25 195 -162v-202c0 -137 -68 -162 -195 -162s-195 25 -195 162zM191 369v-228c0 -31 12 -37 41 -37s41 6 41 37v228c0 31 -12 37 -41 37s-41 -6 -41 -37zM113 594h-64c15 76 48 125 117 125c54 0 108 -38 137 -38
c23 0 43 17 47 43h65c-10 -75 -50 -124 -108 -124c-64 0 -104 35 -150 35c-24 0 -41 -16 -44 -41z" />
    <glyph glyph-name="scaron" unicode="&#x161;" horiz-adv-x="427" 
d="M38 113v45h136v-14c0 -38 8 -46 35 -46s38 8 35 46c-3 43 -7 45 -80 56c-104 15 -129 49 -129 148c0 149 38 167 174 170c129 3 171 -28 171 -101v-59h-130v24c0 23 -10 36 -33 36c-28 0 -34 -11 -34 -46c0 -34 6 -42 67 -51c117 -18 140 -35 142 -147
c3 -159 -55 -182 -175 -182c-132 0 -179 23 -179 121zM152 576l-115 148h113l64 -82l64 82h113l-115 -148h-124z" />
    <glyph glyph-name="uacute" unicode="&#xfa;" 
d="M47 109v401h148v-365c0 -22 10 -35 38 -35c26 0 36 13 36 35v365h148v-510h-148v56h-2c-21 -45 -56 -64 -104 -64c-65 0 -116 29 -116 117zM150 576l92 148h155l-148 -148h-99z" />
    <glyph glyph-name="ucircumflex" unicode="&#xfb;" 
d="M47 109v401h148v-365c0 -22 10 -35 38 -35c26 0 36 13 36 35v365h148v-510h-148v56h-2c-21 -45 -56 -64 -104 -64c-65 0 -116 29 -116 117zM55 576l115 148h124l115 -148h-113l-64 82l-64 -82h-113z" />
    <glyph glyph-name="udieresis" unicode="&#xfc;" 
d="M47 109v401h148v-365c0 -22 10 -35 38 -35c26 0 36 13 36 35v365h148v-510h-148v56h-2c-21 -45 -56 -64 -104 -64c-65 0 -116 29 -116 117zM68 581v118h130v-118h-130zM266 581v118h130v-118h-130z" />
    <glyph glyph-name="ugrave" unicode="&#xf9;" 
d="M47 109v401h148v-365c0 -22 10 -35 38 -35c26 0 36 13 36 35v365h148v-510h-148v56h-2c-21 -45 -56 -64 -104 -64c-65 0 -116 29 -116 117zM215 576l-148 148h155l92 -148h-99z" />
    <glyph glyph-name="yacute" unicode="&#xfd;" horiz-adv-x="408" 
d="M81 0l-71 510h148l45 -422h2l45 422h148l-85 -570c-16 -109 -78 -128 -165 -128c-13 0 -44 3 -66 14v100c12 -3 24 -8 41 -8c13 0 31 2 44 17c11 13 9 42 14 65h-100zM122 576l92 148h155l-148 -148h-99z" />
    <glyph glyph-name="ydieresis" unicode="&#xff;" horiz-adv-x="408" 
d="M81 0l-71 510h148l45 -422h2l45 422h148l-85 -570c-16 -109 -78 -128 -165 -128c-13 0 -44 3 -66 14v100c12 -3 24 -8 41 -8c13 0 31 2 44 17c11 13 9 42 14 65h-100zM40 581v118h130v-118h-130zM238 581v118h130v-118h-130z" />
    <glyph glyph-name="zcaron" unicode="&#x17e;" horiz-adv-x="353" 
d="M25 0v111l144 293h-135v106h287v-123l-138 -281h145v-106h-303zM115 576l-115 148h113l64 -82l64 82h113l-115 -148h-124z" />
    <glyph glyph-name="Omega" unicode="&#x2126;" horiz-adv-x="618" 
d="M141 118v3c-50 60 -101 157 -101 279c0 171 106 324 272 324c181 0 263 -179 263 -314c0 -123 -51 -230 -102 -289v-3h116v-118h-242v85c43 34 87 125 87 291c0 124 -40 225 -124 225c-81 0 -129 -96 -129 -231c0 -151 43 -252 88 -285v-85h-242v118h114z" />
    <glyph glyph-name="uni03BC" unicode="&#x3bc;" 
d="M47 -188v698h148v-365c0 -22 10 -35 38 -35c26 0 36 13 36 35v365h148v-510h-148v56h-2c-12 -50 -32 -56 -46 -56c-12 0 -21 6 -24 18h-2v-206h-148z" />
    <glyph glyph-name="pi" unicode="&#x3c0;" horiz-adv-x="559" 
d="M539 414h-59v-271c0 -68 4 -110 11 -143h-133c-12 25 -17 76 -17 141v273h-106c-4 -96 -23 -293 -56 -414h-133c31 129 52 314 53 414c-38 0 -62 -3 -81 -9l-15 98c24 20 78 36 158 36h388z" />
    <glyph glyph-name="Euro" unicode="&#x20ac;" horiz-adv-x="500" 
d="M368 345l-31 -87h-86v-34c0 -53 7 -114 76 -114h21c29 0 75 8 110 43v-131c-10 -9 -46 -30 -131 -30h-37c-164 0 -205 124 -205 223v43h-80l31 87h49v61h-75l31 87h44v43c0 93 60 196 210 196h35c93 0 145 -43 158 -58l-44 -124c-12 30 -35 64 -99 64h-21
c-65 0 -73 -55 -73 -88v-33h169l-30 -87h-139v-61h117z" />
    <glyph glyph-name="afii61289" unicode="&#x2113;" horiz-adv-x="473" 
d="M408 194l53 -57c-50 -108 -121 -142 -192 -142c-122 0 -167 78 -174 163v12c-14 -12 -31 -27 -46 -39l-32 75c29 26 54 46 77 71v257c0 171 79 255 175 255c90 0 130 -80 130 -185c0 -113 -66 -227 -171 -341l1 -57c1 -63 29 -98 72 -98c44 0 81 43 107 86zM228 520v-125
c55 74 91 158 91 219c0 47 -10 72 -42 72c-24 0 -49 -34 -49 -166z" />
    <glyph glyph-name="estimated" unicode="&#x212e;" horiz-adv-x="892" 
d="M857 352h-666c-3 0 -5 -1 -5 -5v-201c0 -9 3 -17 8 -23c65 -67 154 -110 252 -110c106 0 200 49 265 123h59c-73 -86 -193 -143 -325 -143c-227 0 -410 165 -410 369s183 370 410 370c228 0 412 -166 412 -370v-10zM706 378v202c0 9 -4 18 -10 25
c-65 63 -152 105 -250 105c-97 0 -186 -43 -251 -109c-6 -6 -9 -15 -9 -25v-198c0 -2 2 -7 5 -7h510c3 0 5 5 5 7z" />
    <glyph glyph-name="partialdiff" unicode="&#x2202;" horiz-adv-x="537" 
d="M98 645l-35 112c29 23 82 57 170 57c135 0 258 -123 258 -387c0 -270 -96 -430 -262 -430c-129 0 -194 130 -194 242c0 172 92 272 200 272c65 0 106 -42 119 -64h1v30c0 102 -51 216 -141 216c-53 0 -91 -25 -116 -48zM242 120h1c60 0 94 117 101 207
c-6 26 -35 67 -82 67c-56 0 -90 -81 -90 -163c0 -61 26 -111 70 -111z" />
    <glyph glyph-name="product" unicode="&#x220f;" horiz-adv-x="671" 
d="M645 581h-87v-680h-139v680h-169v-680h-138v680h-87v133h620v-133z" />
    <glyph glyph-name="summation" unicode="&#x2211;" horiz-adv-x="508" 
d="M491 -99h-468v96l209 313l-203 302v102h447v-121h-266v-3l177 -252l-202 -298v-3h306v-136z" />
    <glyph glyph-name="uni2219" unicode="&#x2219;" horiz-adv-x="250" 
d="M36 287c0 49 40 89 89 89s89 -40 89 -89s-40 -89 -89 -89s-89 40 -89 89z" />
    <glyph glyph-name="radical" unicode="&#x221a;" horiz-adv-x="555" 
d="M560 862l-203 -997h-109l-128 435l-68 -27l-21 81l173 70l79 -289c7 -37 15 -75 19 -99l2 -1c3 23 7 66 15 109l148 718h93z" />
    <glyph glyph-name="infinity" unicode="&#x221e;" horiz-adv-x="749" 
d="M704 294v-1c0 -110 -78 -173 -158 -173c-55 0 -107 19 -169 107c-50 -64 -100 -107 -177 -107c-81 0 -155 66 -155 168s70 171 163 171c71 0 121 -37 170 -103c37 42 85 104 173 103c84 0 153 -64 153 -165zM209 196h2c51 0 87 42 124 88c-39 55 -69 101 -128 101
c-54 0 -85 -41 -85 -98c0 -50 39 -91 87 -91zM543 385h-1c-56 0 -96 -58 -125 -93c55 -73 82 -96 131 -96c50 0 79 52 79 92c0 54 -32 97 -84 97z" />
    <glyph glyph-name="integral" unicode="&#x222b;" horiz-adv-x="398" 
d="M368 876l-13 -101c-9 4 -18 8 -31 8c-19 0 -34 -8 -45 -27c-19 -26 -23 -86 -23 -168c0 -169 13 -292 13 -483c0 -92 -10 -162 -31 -205c-27 -60 -83 -80 -134 -80c-34 0 -62 8 -76 15l17 105c9 -4 20 -10 38 -10c14 0 29 4 38 19c15 23 21 66 21 152
c0 195 -14 320 -14 500c0 123 17 188 59 236c28 33 76 49 121 49c25 0 48 -5 60 -10z" />
    <glyph glyph-name="approxequal" unicode="&#x2248;" horiz-adv-x="501" 
d="M419 460l48 -42c-28 -61 -74 -106 -128 -106c-35 0 -59 10 -100 37c-28 20 -48 34 -77 34c-40 0 -59 -37 -80 -70l-49 43c27 58 76 104 136 104c46 0 74 -21 96 -34c32 -20 52 -35 76 -35c35 0 55 31 78 69zM419 274l48 -43c-27 -60 -74 -105 -128 -105
c-35 0 -60 11 -100 37c-29 20 -48 34 -77 34c-40 0 -59 -36 -80 -70l-49 42c27 59 76 105 136 105c46 0 74 -21 96 -34c29 -17 50 -36 76 -36c35 0 54 31 78 70z" />
    <glyph glyph-name="notequal" unicode="&#x2260;" horiz-adv-x="501" 
d="M375 515l-34 -81h116v-81h-143l-53 -128h196v-81h-224l-43 -105l-62 23l34 82h-118v81h146l52 128h-198v81h226l43 104z" />
    <glyph glyph-name="lessequal" unicode="&#x2264;" horiz-adv-x="501" 
d="M455 99l-406 219v88l405 218v-95l-330 -166v-2l331 -166v-96zM459 -19h-413v83h413v-83z" />
    <glyph glyph-name="greaterequal" unicode="&#x2265;" horiz-adv-x="501" 
d="M52 624l405 -218v-88l-405 -219v96l330 166v2l-330 166v95zM458 -19h-411v83h411v-83z" />
    <glyph glyph-name="lozenge" unicode="&#x25ca;" horiz-adv-x="554" 
d="M508 356l-178 -406h-114l-170 406l178 407h114zM385 353l-86 219c-7 22 -14 50 -18 71h-4c-4 -22 -11 -48 -18 -71l-90 -212l88 -225c7 -22 13 -51 16 -66h5c3 16 12 54 16 64z" />
    <glyph glyph-name="uni00A0" unicode="&#xa0;" horiz-adv-x="250" 
 />
    <glyph glyph-name="uni00AD" unicode="&#xad;" horiz-adv-x="333" 
d="M36 200v130h261v-130h-261z" />
    <glyph glyph-name="uni02C9" unicode="&#x2c9;" horiz-adv-x="242" 
d="M-45 648v76h332v-76h-332z" />
    <glyph glyph-name="uni03A9" unicode="&#x3a9;" horiz-adv-x="618" 
d="M141 118v3c-50 60 -101 157 -101 279c0 171 106 324 272 324c181 0 263 -179 263 -314c0 -123 -51 -230 -102 -289v-3h116v-118h-242v85c43 34 87 125 87 291c0 124 -40 225 -124 225c-81 0 -129 -96 -129 -231c0 -151 43 -252 88 -285v-85h-242v118h114z" />
    <glyph glyph-name="uni2215" unicode="&#x2215;" horiz-adv-x="167" 
d="M-166 -8l395 740h104l-395 -740h-104z" />
    <glyph glyph-name="a.superior" horiz-adv-x="289" 
d="M29 638v40c0 45 33 54 116 54c95 0 132 -12 132 -87v-229h-102v26l-2 -2c-20 -25 -33 -30 -81 -30c-66 0 -80 36 -80 110c0 81 31 99 83 99c36 0 58 -6 76 -19v51c0 10 -9 15 -25 15c-14 0 -23 -4 -23 -16v-12h-94zM124 527v-15c1 -20 6 -26 23 -26c21 0 24 11 24 23v22
c0 15 -5 22 -24 22c-15 0 -23 -5 -23 -26z" />
    <glyph glyph-name="o.superior" horiz-adv-x="302" 
d="M16 507v128c0 82 44 97 135 97c90 0 135 -15 135 -97v-128c0 -82 -45 -97 -135 -97c-91 0 -135 15 -135 97zM128 633v-124c0 -19 7 -23 23 -23s23 4 23 23v124c0 19 -7 23 -23 23s-23 -4 -23 -23z" />
    <glyph glyph-name="one.superior" horiz-adv-x="325" 
d="M4 604l100 120h150v-431h-124v349h-2l-60 -90z" />
    <glyph glyph-name="two.superior" horiz-adv-x="325" 
d="M21 293v90c0 61 22 94 104 128c41 17 55 22 55 62v35c0 38 -6 42 -20 42c-15 0 -22 -6 -22 -19v-65h-112v71c0 81 45 95 141 95c135 0 137 -32 137 -139c0 -98 -11 -108 -101 -142c-53 -20 -70 -33 -70 -70v-6h169v-82h-281z" />
    <glyph glyph-name="three.superior" horiz-adv-x="325" 
d="M97 474v82h29c50 0 54 6 54 61c0 30 -5 33 -26 33c-18 0 -26 -3 -26 -21v-27h-112v46c0 60 39 84 136 84c125 0 146 -28 146 -99c0 -86 -9 -102 -62 -111v-4c62 -8 68 -37 68 -112c0 -89 -21 -121 -155 -121c-118 0 -135 30 -135 88v58h112v-35c0 -19 3 -29 29 -29
c28 0 31 10 31 57c0 48 -4 50 -43 50h-46z" />
    <glyph glyph-name="uni2206" unicode="&#x2206;" horiz-adv-x="597" 
d="M24 0v83l197 644h164l186 -641v-86h-547zM164 116h264l-81 254c-13 58 -39 143 -48 186h-2c-7 -38 -32 -111 -46 -172z" />
    <glyph glyph-name="uni2010" unicode="&#x2010;" horiz-adv-x="333" 
d="M36 200v130h261v-130h-261z" />
    </font>
</defs>
</svg>
