<?xml version="1.0" standalone="no"?>
<!DOCTYPE svg PUBLIC "-//W3C//DTD SVG 20010904//EN"
 "http://www.w3.org/TR/2001/REC-SVG-20010904/DTD/svg10.dtd">
<svg version="1.0" xmlns="http://www.w3.org/2000/svg"
 width="500.000000pt" height="500.000000pt" viewBox="0 0 500.000000 500.000000"
 preserveAspectRatio="xMidYMid meet">
<metadata>
Created by potrace 1.11, written by Peter Selinger 2001-2013
</metadata>
<g transform="translate(0.000000,500.000000) scale(0.100000,-0.100000)"
fill="#000000" stroke="none">
<path d="M609 3578 c-1 -2 -2 -490 -3 -1085 l-1 -1083 222 0 223 0 0 917 c0
504 2 914 4 912 3 -2 7 -27 10 -54 3 -28 11 -75 16 -105 5 -30 12 -75 15 -100
3 -25 10 -74 16 -110 6 -36 12 -81 15 -100 2 -19 9 -60 14 -90 5 -30 12 -71
14 -90 3 -19 9 -64 15 -100 6 -36 13 -83 16 -105 8 -57 17 -118 20 -135 2 -8
6 -37 9 -65 4 -27 11 -75 16 -105 5 -30 14 -84 19 -120 14 -98 62 -415 76
-502 l7 -48 283 0 c244 0 284 2 289 15 3 9 12 57 21 108 8 50 17 102 19 113 2
12 7 39 10 60 4 22 17 100 31 174 13 74 26 146 29 160 2 14 9 53 16 88 6 35
13 75 15 90 2 15 20 117 40 227 19 110 38 216 41 235 2 19 7 46 10 60 2 14 7
39 9 55 3 17 10 53 15 80 5 28 12 64 15 80 3 17 7 41 9 55 3 14 12 68 21 120
9 52 18 97 20 99 4 3 1 -370 -10 -1356 l-5 -463 227 0 228 0 0 1083 0 1082
-392 3 c-216 1 -393 1 -393 -1 0 -5 -30 -218 -35 -247 -2 -14 -7 -45 -10 -70
-3 -25 -8 -56 -10 -70 -2 -14 -6 -47 -10 -75 -3 -27 -8 -57 -10 -65 -2 -8 -6
-37 -10 -65 -3 -27 -13 -97 -21 -155 -9 -58 -17 -114 -19 -125 -7 -60 -17
-133 -20 -155 -8 -52 -87 -596 -90 -620 -1 -14 -3 -31 -4 -39 -2 -32 -10 0
-26 104 -9 61 -18 126 -21 145 -2 19 -9 64 -14 100 -15 103 -19 128 -35 250
-9 63 -18 126 -20 140 -4 23 -22 148 -30 210 -2 14 -11 75 -20 135 -23 157
-30 211 -40 290 -3 28 -8 61 -10 75 -3 14 -7 43 -11 65 -3 22 -9 67 -15 100
-5 33 -9 63 -9 68 0 6 -778 11 -781 5z"/>
<path d="M2983 2495 l0 -1085 248 0 249 0 2 481 3 481 185 -481 184 -481 268
0 268 0 -13 33 c-55 128 -384 913 -402 957 -12 30 -31 75 -42 100 -21 48 -20
55 24 160 6 14 23 54 37 90 26 64 36 87 56 133 5 12 52 128 105 257 53 129
100 244 105 255 21 48 70 170 70 177 0 5 -119 8 -264 8 l-264 0 -12 -32 c-10
-29 -56 -161 -206 -593 -19 -55 -49 -142 -67 -194 l-32 -94 -3 456 -2 457
-249 0 -248 0 0 -1085z"/>
</g>
</svg>
